<svg viewBox="0 0 60 60" xmlns="http://www.w3.org/2000/svg">
  <defs>
    <!-- Gold gradient for consistency -->
    <linearGradient id="storeGoldGradient" x1="0%" y1="0%" x2="100%" y2="100%">
      <stop offset="0%" style="stop-color:#FFD700;stop-opacity:1" />
      <stop offset="50%" style="stop-color:#FFA500;stop-opacity:1" />
      <stop offset="100%" style="stop-color:#FF8C00;stop-opacity:1" />
    </linearGradient>
    
    <!-- Red gradient for roof -->
    <linearGradient id="storeRedGradient" x1="0%" y1="0%" x2="100%" y2="100%">
      <stop offset="0%" style="stop-color:#DC143C;stop-opacity:1" />
      <stop offset="100%" style="stop-color:#8B0000;stop-opacity:1" />
    </linearGradient>
    
    <!-- Drop shadow -->
    <filter id="storeDropShadow" x="-20%" y="-20%" width="140%" height="140%">
      <feDropShadow dx="1" dy="1" stdDeviation="2" flood-color="#000000" flood-opacity="0.3"/>
    </filter>
  </defs>
  
  <!-- Building base -->
  <rect x="12" y="25" width="36" height="28" 
        fill="url(#storeGoldGradient)" 
        stroke="#8B0000" 
        stroke-width="1.5" 
        filter="url(#storeDropShadow)"/>
  
  <!-- Roof -->
  <polygon points="8,25 30,8 52,25" 
           fill="url(#storeRedGradient)" 
           stroke="#8B0000" 
           stroke-width="1.5"/>
  
  <!-- Door -->
  <rect x="25" y="35" width="10" height="18" 
        fill="#8B0000" 
        stroke="url(#storeGoldGradient)" 
        stroke-width="1"/>
  
  <!-- Door handle -->
  <circle cx="32" cy="44" r="1" fill="#FFD700"/>
  
  <!-- Windows -->
  <rect x="16" y="30" width="6" height="6" 
        fill="#4169E1" 
        stroke="#8B0000" 
        stroke-width="0.5" 
        opacity="0.8"/>
  <rect x="38" y="30" width="6" height="6" 
        fill="#4169E1" 
        stroke="#8B0000" 
        stroke-width="0.5" 
        opacity="0.8"/>
  
  <!-- Window crosses -->
  <line x1="19" y1="30" x2="19" y2="36" stroke="#8B0000" stroke-width="0.5"/>
  <line x1="16" y1="33" x2="22" y2="33" stroke="#8B0000" stroke-width="0.5"/>
  <line x1="41" y1="30" x2="41" y2="36" stroke="#8B0000" stroke-width="0.5"/>
  <line x1="38" y1="33" x2="44" y2="33" stroke="#8B0000" stroke-width="0.5"/>
  
  <!-- Awning -->
  <polygon points="10,40 50,40 48,43 12,43" 
           fill="url(#storeRedGradient)" 
           stroke="#8B0000" 
           stroke-width="1" 
           opacity="0.8"/>
  
  <!-- Awning support poles -->
  <line x1="15" y1="40" x2="15" y2="53" stroke="#8B0000" stroke-width="2"/>
  <line x1="45" y1="40" x2="45" y2="53" stroke="#8B0000" stroke-width="2"/>
  
  <!-- Decorative chimney -->
  <rect x="38" y="12" width="6" height="13" 
        fill="url(#storeGoldGradient)" 
        stroke="#8B0000" 
        stroke-width="1"/>
  <rect x="37" y="10" width="8" height="3" 
        fill="url(#storeRedGradient)" 
        stroke="#8B0000" 
        stroke-width="1"/>
  
  <!-- Small decorative elements -->
  <circle cx="30" cy="18" r="1.5" fill="#FFD700"/>
  <circle cx="20" cy="45" r="0.8" fill="#FF8C00" opacity="0.6"/>
  <circle cx="40" cy="45" r="0.8" fill="#FF8C00" opacity="0.6"/>
</svg>